<svg xmlns="http://www.w3.org/2000/svg" xmlns:xlink="http://www.w3.org/1999/xlink" version="1.1" x="0px" y="0px" viewBox="0 0 100 125" enable-background="new 0 0 100 100" xml:space="preserve"><g><path fill="#000000" d="M37.4,93.8c-0.2,0-0.5-0.1-0.7-0.2c-0.7-0.3-1-1.1-0.7-1.9l14-38.2l-19.7-0.2c-0.5,0-1-0.3-1.2-0.7   c-0.3-0.4-0.3-0.9-0.2-1.4L45.3,9.1c0.2-0.6,0.8-1,1.4-1h17.9c0.5,0,1,0.3,1.3,0.7c0.3,0.4,0.3,1,0.1,1.4L52.7,39.9H71   c0.6,0,1.1,0.3,1.3,0.8c0.3,0.5,0.2,1.1-0.1,1.5L38.6,93.2C38.4,93.6,37.9,93.8,37.4,93.8z M32.5,50.5l19.7,0.2   c0.5,0,0.9,0.2,1.2,0.6c0.3,0.4,0.3,0.9,0.2,1.4L43.2,80.8l25-37.8H50.4c-0.5,0-1-0.3-1.3-0.7c-0.3-0.4-0.3-1-0.1-1.4l13.4-29.7   H47.8L32.5,50.5z"/></g><text x="0" y="115" fill="#000000" font-size="5px" font-weight="bold" font-family="'Helvetica Neue', Helvetica, Arial-Unicode, Arial, Sans-serif">Created by Ilya Kolbin</text><text x="0" y="120" fill="#000000" font-size="5px" font-weight="bold" font-family="'Helvetica Neue', Helvetica, Arial-Unicode, Arial, Sans-serif">from the Noun Project</text></svg>