<svg xmlns="http://www.w3.org/2000/svg" xmlns:xlink="http://www.w3.org/1999/xlink" version="1.1" x="0px" y="0px" viewBox="0 0 96 120" style="enable-background:new 0 0 96 96;" xml:space="preserve"><g><path d="M40.7,91.8h14.5c1.1,0,2-0.9,2-2V53.2L86,7.2c0.4-0.6,0.4-1.4,0.1-2s-1-1-1.7-1H11.7c-0.7,0-1.4,0.4-1.7,1   c-0.4,0.6-0.3,1.4,0.1,2l28.7,45.9v36.7C38.7,90.9,39.6,91.8,40.7,91.8z M15.3,8.2h65.3L53.6,51.5c-0.2,0.3-0.3,0.7-0.3,1.1v35.2   H42.7V52.6c0-0.4-0.1-0.7-0.3-1.1L15.3,8.2z"/></g><text x="0" y="111" fill="#000000" font-size="5px" font-weight="bold" font-family="'Helvetica Neue', Helvetica, Arial-Unicode, Arial, Sans-serif">Created by Satisfactory</text><text x="0" y="116" fill="#000000" font-size="5px" font-weight="bold" font-family="'Helvetica Neue', Helvetica, Arial-Unicode, Arial, Sans-serif">from the Noun Project</text></svg>